REM DIRINDEX 1\2,1\3,1\4,1\5
REM DIRNAME cjc004,folder01,folder02,folder03,folder04
TITLE ""
FILE "1Q_t_0120-0129.mp3" MP3
  TRACK 01 AUDIO
    TITLE "3:cjc004_1260"
    INDEX 01 00:00:00
  TRACK 02 AUDIO
    TITLE "0:"
    INDEX 01 00:00:72
  TRACK 03 AUDIO
    TITLE "4:cjc004_1261"
    INDEX 01 00:01:30
  TRACK 04 AUDIO
    TITLE "0:"
    INDEX 01 00:02:69
  TRACK 05 AUDIO
    TITLE "5:cjc004_1262"
    INDEX 01 00:03:29
  TRACK 06 AUDIO
    TITLE "0:"
    INDEX 01 00:07:21
  TRACK 07 AUDIO
    TITLE "3:cjc004_1263"
    INDEX 01 00:07:74
  TRACK 08 AUDIO
    TITLE "0:"
    INDEX 01 00:09:26
  TRACK 09 AUDIO
    TITLE "4:cjc004_1264"
    INDEX 01 00:09:55
  TRACK 10 AUDIO
    TITLE "0:"
    INDEX 01 00:11:44
  TRACK 11 AUDIO
    TITLE "5:cjc004_1265"
    INDEX 01 00:11:72
  TRACK 12 AUDIO
    TITLE "0:"
    INDEX 01 00:16:30
  TRACK 13 AUDIO
    TITLE "3:cjc004_1266"
    INDEX 01 00:17:20
  TRACK 14 AUDIO
    TITLE "0:"
    INDEX 01 00:18:25
  TRACK 15 AUDIO
    TITLE "4:cjc004_1267"
    INDEX 01 00:18:58
  TRACK 16 AUDIO
    TITLE "0:"
    INDEX 01 00:20:36
  TRACK 17 AUDIO
    TITLE "5:cjc004_1268"
    INDEX 01 00:20:63
  TRACK 18 AUDIO
    TITLE "0:"
    INDEX 01 00:26:42
  TRACK 19 AUDIO
    TITLE "3:cjc004_1269"
    INDEX 01 00:27:28
  TRACK 20 AUDIO
    TITLE "0:"
    INDEX 01 00:28:39
  TRACK 21 AUDIO
    TITLE "4:cjc004_1270"
    INDEX 01 00:28:70
  TRACK 22 AUDIO
    TITLE "0:"
    INDEX 01 00:30:46
  TRACK 23 AUDIO
    TITLE "5:cjc004_1271"
    INDEX 01 00:31:00
  TRACK 24 AUDIO
    TITLE "0:"
    INDEX 01 00:34:69
  TRACK 25 AUDIO
    TITLE "3:cjc004_1272"
    INDEX 01 00:35:57
  TRACK 26 AUDIO
    TITLE "0:"
    INDEX 01 00:37:10
  TRACK 27 AUDIO
    TITLE "4:cjc004_1273"
    INDEX 01 00:37:44
  TRACK 28 AUDIO
    TITLE "0:"
    INDEX 01 00:39:07
  TRACK 29 AUDIO
    TITLE "5:cjc004_1274"
    INDEX 01 00:39:37
  TRACK 30 AUDIO
    TITLE "0:"
    INDEX 01 00:44:63
  TRACK 31 AUDIO
    TITLE "3:cjc004_1275"
    INDEX 01 00:45:41
  TRACK 32 AUDIO
    TITLE "0:"
    INDEX 01 00:46:43
  TRACK 33 AUDIO
    TITLE "4:cjc004_1276"
    INDEX 01 00:47:13
  TRACK 34 AUDIO
    TITLE "0:"
    INDEX 01 00:48:30
  TRACK 35 AUDIO
    TITLE "5:cjc004_1277"
    INDEX 01 00:48:65
  TRACK 36 AUDIO
    TITLE "0:"
    INDEX 01 00:53:53
  TRACK 37 AUDIO
    TITLE "3:cjc004_1278"
    INDEX 01 00:54:38
  TRACK 38 AUDIO
    TITLE "0:"
    INDEX 01 00:55:59
  TRACK 39 AUDIO
    TITLE "4:cjc004_1279"
    INDEX 01 00:56:02
  TRACK 40 AUDIO
    TITLE "0:"
    INDEX 01 00:57:21
  TRACK 41 AUDIO
    TITLE "5:cjc004_1280"
    INDEX 01 00:57:54
  TRACK 42 AUDIO
    TITLE "0:"
    INDEX 01 01:02:28
  TRACK 43 AUDIO
    TITLE "3:cjc004_1281"
    INDEX 01 01:03:16
  TRACK 44 AUDIO
    TITLE "0:"
    INDEX 01 01:04:29
  TRACK 45 AUDIO
    TITLE "4:cjc004_1282"
    INDEX 01 01:04:68
  TRACK 46 AUDIO
    TITLE "0:"
    INDEX 01 01:06:24
  TRACK 47 AUDIO
    TITLE "5:cjc004_1283"
    INDEX 01 01:06:57
  TRACK 48 AUDIO
    TITLE "0:"
    INDEX 01 01:12:11
  TRACK 49 AUDIO
    TITLE "3:cjc004_1284"
    INDEX 01 01:12:70
  TRACK 50 AUDIO
    TITLE "0:"
    INDEX 01 01:14:08
  TRACK 51 AUDIO
    TITLE "4:cjc004_1285"
    INDEX 01 01:14:31
  TRACK 52 AUDIO
    TITLE "0:"
    INDEX 01 01:15:48
  TRACK 53 AUDIO
    TITLE "5:cjc004_1286"
    INDEX 01 01:15:74
  TRACK 54 AUDIO
    TITLE "0:"
    INDEX 01 01:20:69
  TRACK 55 AUDIO
    TITLE "3:cjc004_1287"
    INDEX 01 01:21:57
  TRACK 56 AUDIO
    TITLE "0:"
    INDEX 01 01:22:66
  TRACK 57 AUDIO
    TITLE "4:cjc004_1288"
    INDEX 01 01:23:15
  TRACK 58 AUDIO
    TITLE "0:"
    INDEX 01 01:24:37
  TRACK 59 AUDIO
    TITLE "5:cjc004_1289"
    INDEX 01 01:24:73
  TRACK 60 AUDIO
    TITLE "0:"
    INDEX 01 01:30:24
